<svg width="18" height="15" viewBox="0 0 18 15" fill="none" xmlns="http://www.w3.org/2000/svg">
<path d="M1.78546 3.48195C1.97391 3.02698 2.25014 2.61358 2.59837 2.26536C2.94659 1.91713 3.35998 1.64091 3.81496 1.45245C4.26993 1.26399 4.75757 1.16699 5.25003 1.16699C5.74249 1.16699 6.23013 1.26399 6.68511 1.45245C7.14008 1.64091 7.55348 1.91713 7.9017 2.26536L9.00003 3.36369L10.0984 2.26536C10.8016 1.56209 11.7555 1.167 12.75 1.167C13.7446 1.167 14.6984 1.56209 15.4017 2.26536C16.105 2.96862 16.5001 3.92246 16.5001 4.91703C16.5001 5.91159 16.105 6.86543 15.4017 7.56869L9.00003 13.9704L2.59837 7.56869C2.25014 7.22047 1.97391 6.80707 1.78546 6.3521C1.597 5.89712 1.5 5.40949 1.5 4.91703C1.5 4.42456 1.597 3.93693 1.78546 3.48195Z" stroke="#2F302C" stroke-width="1.5" stroke-linecap="round" stroke-linejoin="round"/>
</svg>
