<svg viewBox="0 0 17.502 19.5" xmlns="http://www.w3.org/2000/svg" xmlns:xlink="http://www.w3.org/1999/xlink" width="17.501953" height="19.500000" fill="none" customFrame="#000000">
	<path id="Vector" d="M10 7.41667C10 7.83088 10.3358 8.16667 10.75 8.16667C11.1642 8.16667 11.5 7.83088 11.5 7.41667L10 7.41667ZM10.75 4.08333L11.5 4.08333L10.75 4.08333ZM7.41667 0.75L7.41667 0L7.41667 0.75ZM4.08333 4.08333L3.33333 4.08333L4.08333 4.08333ZM3.33333 7.41667C3.33333 7.83088 3.66912 8.16667 4.08333 8.16667C4.49755 8.16667 4.83333 7.83088 4.83333 7.41667L3.33333 7.41667ZM1.58333 5.75L1.58333 5C1.19327 5 0.868317 5.299 0.835924 5.68772L1.58333 5.75ZM13.25 5.75L13.9974 5.68772C13.965 5.299 13.6401 5 13.25 5L13.25 5.75ZM14.0833 15.75L14.0833 16.5C14.2931 16.5 14.4932 16.4122 14.6352 16.2578C14.7773 16.1035 14.8482 15.8967 14.8307 15.6877L14.0833 15.75ZM0.75 15.75L0.00259066 15.6877C-0.0148272 15.8967 0.056072 16.1035 0.198088 16.2578C0.340105 16.4122 0.540261 16.5 0.75 16.5L0.75 15.75ZM11.5 7.41667L11.5 4.08333L10 4.08333L10 7.41667L11.5 7.41667ZM11.5 4.08333C11.5 3.00037 11.0698 1.96175 10.304 1.19598L9.24336 2.25664C9.72783 2.74111 10 3.39819 10 4.08333L11.5 4.08333ZM10.304 1.19598C9.53825 0.430207 8.49963 0 7.41667 0L7.41667 1.5C8.10181 1.5 8.75889 1.77217 9.24336 2.25664L10.304 1.19598ZM7.41667 0C6.3337 0 5.29509 0.430207 4.52931 1.19598L5.58997 2.25664C6.07444 1.77217 6.73152 1.5 7.41667 1.5L7.41667 0ZM4.52931 1.19598C3.76354 1.96175 3.33333 3.00037 3.33333 4.08333L4.83333 4.08333C4.83333 3.39819 5.1055 2.74111 5.58997 2.25664L4.52931 1.19598ZM3.33333 4.08333L3.33333 7.41667L4.83333 7.41667L4.83333 4.08333L3.33333 4.08333ZM1.58333 6.5L13.25 6.5L13.25 5L1.58333 5L1.58333 6.5ZM12.5026 5.81228L13.3359 15.8123L14.8307 15.6877L13.9974 5.68772L12.5026 5.81228ZM14.0833 15L0.75 15L0.75 16.5L14.0833 16.5L14.0833 15ZM1.49741 15.8123L2.33074 5.81228L0.835924 5.68772L0.00259066 15.6877L1.49741 15.8123Z" stroke="rgb(47,48,44)" stroke-linecap="round" stroke-linejoin="round" stroke-width="1.5" />
</svg>
