<svg viewBox="0 0 19.5 16.9092" xmlns="http://www.w3.org/2000/svg" xmlns:xlink="http://www.w3.org/1999/xlink" width="19.500000" height="16.909180" fill="none" customFrame="#000000">
	<path id="Vector" d="M1.84837 1.84837L2.37869 2.3787L2.3787 2.37869L1.84837 1.84837ZM1.84837 7.1517L2.3787 6.62137L2.37869 6.62137L1.84837 7.1517ZM8.25003 13.5534L7.7197 14.0837C7.86035 14.2243 8.05112 14.3034 8.25003 14.3034C8.44895 14.3034 8.63971 14.2243 8.78036 14.0837L8.25003 13.5534ZM14.6517 7.1517L14.1214 6.62137L14.1214 6.62137L14.6517 7.1517ZM15.7501 4.50003L15.0001 4.50003L15.7501 4.50003ZM9.34837 1.84837L8.81804 1.31804L8.81804 1.31804L9.34837 1.84837ZM8.25003 2.9467L7.7197 3.47703C7.86035 3.61768 8.05112 3.6967 8.25003 3.6967C8.44895 3.6967 8.63971 3.61768 8.78036 3.47703L8.25003 2.9467ZM7.1517 1.84837L6.62137 2.37869L6.62137 2.3787L7.1517 1.84837ZM4.50003 0.75L4.50003 0L4.50003 0.75ZM1.31804 1.31803C0.900169 1.7359 0.568697 2.23198 0.342547 2.77794L1.72836 3.35197C1.87913 2.98799 2.10011 2.65728 2.37869 2.3787L1.31804 1.31803ZM0.342547 2.77794C0.116398 3.32391 0 3.90908 0 4.50003L1.5 4.50003C1.5 4.10606 1.5776 3.71595 1.72836 3.35197L0.342547 2.77794ZM0 4.50003C0 5.09099 0.116398 5.67615 0.342547 6.22212L1.72836 5.64809C1.5776 5.28411 1.5 4.894 1.5 4.50003L0 4.50003ZM0.342547 6.22212C0.568697 6.76809 0.900169 7.26417 1.31804 7.68203L2.37869 6.62137C2.10011 6.34279 1.87913 6.01207 1.72836 5.64809L0.342547 6.22212ZM1.31804 7.68203L7.7197 14.0837L8.78036 13.023L2.3787 6.62137L1.31804 7.68203ZM8.78036 14.0837L15.182 7.68203L14.1214 6.62137L7.7197 13.023L8.78036 14.0837ZM15.182 7.68203C16.0259 6.83811 16.5001 5.69351 16.5001 4.50003L15.0001 4.50003C15.0001 5.29569 14.684 6.05876 14.1214 6.62137L15.182 7.68203ZM16.5001 4.50003C16.5001 3.30655 16.0259 2.16195 15.182 1.31804L14.1214 2.3787C14.684 2.94131 15.0001 3.70438 15.0001 4.50003L16.5001 4.50003ZM15.182 1.31804C14.3381 0.474118 13.1935 9.53674e-06 12 9.53674e-06L12 1.50001C12.7957 1.50001 13.5588 1.81608 14.1214 2.3787L15.182 1.31804ZM12 9.53674e-06C10.8066 9.53674e-06 9.66195 0.474118 8.81804 1.31804L9.8787 2.3787C10.4413 1.81608 11.2044 1.50001 12 1.50001L12 9.53674e-06ZM8.81804 1.31804L7.7197 2.41637L8.78036 3.47703L9.8787 2.3787L8.81804 1.31804ZM8.78036 2.41637L7.68203 1.31804L6.62137 2.3787L7.7197 3.47703L8.78036 2.41637ZM7.68203 1.31804C7.26417 0.900169 6.76809 0.568697 6.22212 0.342547L5.64809 1.72836C6.01207 1.87913 6.34279 2.10011 6.62137 2.37869L7.68203 1.31804ZM6.22212 0.342547C5.67615 0.116398 5.09099 0 4.50003 0L4.50003 1.5C4.894 1.5 5.28411 1.5776 5.64809 1.72836L6.22212 0.342547ZM4.50003 0C3.90908 0 3.32391 0.116398 2.77794 0.342547L3.35197 1.72836C3.71595 1.5776 4.10606 1.5 4.50003 1.5L4.50003 0ZM2.77794 0.342547C2.23198 0.568697 1.7359 0.90017 1.31803 1.31804L2.3787 2.37869C2.65728 2.10011 2.98799 1.87913 3.35197 1.72836L2.77794 0.342547Z" stroke="rgb(47,48,44)" stroke-linecap="round" stroke-linejoin="round" stroke-width="1.5" />
</svg>
