<svg viewBox="0 0 20 20" xmlns="http://www.w3.org/2000/svg" xmlns:xlink="http://www.w3.org/1999/xlink" width="20.000000" height="20.000000" fill="none">
	<rect id="search" width="20.000000" height="20.000000" x="0.000000" y="0.000000" fill="rgb(255,255,255)" fill-opacity="0" />
	<path id="Vector" d="M16.9697 18.0303C17.2626 18.3232 17.7374 18.3232 18.0303 18.0303C18.3232 17.7374 18.3232 17.2626 18.0303 16.9697L16.9697 18.0303ZM13.0303 11.9697C12.7374 11.6768 12.2626 11.6768 11.9697 11.9697C11.6768 12.2626 11.6768 12.7374 11.9697 13.0303L13.0303 11.9697ZM14.1667 8.33333L13.4167 8.33333L14.1667 8.33333ZM8.33333 14.1667L8.33333 14.9167L8.33333 14.1667ZM2.5 8.33333L1.75 8.33333L2.5 8.33333ZM8.33333 2.5L8.33333 3.25L8.33333 2.5ZM18.0303 16.9697L13.0303 11.9697L11.9697 13.0303L16.9697 18.0303L18.0303 16.9697ZM13.4167 8.33333C13.4167 9.00089 13.2852 9.6619 13.0297 10.2786L14.4155 10.8527C14.7464 10.0539 14.9167 9.19787 14.9167 8.33333L13.4167 8.33333ZM13.0297 10.2786C12.7743 10.8954 12.3998 11.4558 11.9278 11.9278L12.9885 12.9885C13.5998 12.3771 14.0847 11.6514 14.4155 10.8527L13.0297 10.2786ZM11.9278 11.9278C11.4558 12.3998 10.8954 12.7743 10.2786 13.0297L10.8527 14.4155C11.6514 14.0847 12.3771 13.5998 12.9885 12.9885L11.9278 11.9278ZM10.2786 13.0297C9.6619 13.2852 9.00089 13.4167 8.33333 13.4167L8.33333 14.9167C9.19787 14.9167 10.0539 14.7464 10.8527 14.4155L10.2786 13.0297ZM8.33333 13.4167C7.66578 13.4167 7.00476 13.2852 6.38803 13.0297L5.814 14.4155C6.61273 14.7464 7.4688 14.9167 8.33333 14.9167L8.33333 13.4167ZM6.38803 13.0297C5.77129 12.7743 5.21091 12.3998 4.73887 11.9278L3.67821 12.9885C4.28953 13.5998 5.01527 14.0847 5.814 14.4155L6.38803 13.0297ZM4.73887 11.9278C4.26684 11.4558 3.89241 10.8954 3.63695 10.2786L2.25113 10.8527C2.58197 11.6514 3.06689 12.3771 3.67821 12.9885L4.73887 11.9278ZM3.63695 10.2786C3.38148 9.6619 3.25 9.00089 3.25 8.33333L1.75 8.33333C1.75 9.19787 1.92028 10.0539 2.25113 10.8527L3.63695 10.2786ZM3.25 8.33333C3.25 6.98515 3.78556 5.69218 4.73887 4.73887L3.67821 3.67821C2.4436 4.91283 1.75 6.58732 1.75 8.33333L3.25 8.33333ZM4.73887 4.73887C5.69218 3.78556 6.98515 3.25 8.33333 3.25L8.33333 1.75C6.58732 1.75 4.91283 2.4436 3.67821 3.67821L4.73887 4.73887ZM8.33333 3.25C9.68152 3.25 10.9745 3.78556 11.9278 4.73887L12.9885 3.67821C11.7538 2.4436 10.0793 1.75 8.33333 1.75L8.33333 3.25ZM11.9278 4.73887C12.8811 5.69218 13.4167 6.98515 13.4167 8.33333L14.9167 8.33333C14.9167 6.58732 14.2231 4.91283 12.9885 3.67821L11.9278 4.73887Z" stroke="rgb(47,48,44)" stroke-linecap="round" stroke-linejoin="round" stroke-width="1.5" />
</svg>
