<svg viewBox="0 0 18 20" fill="none" width="28.8" height="32" xmlns="http://www.w3.org/2000/svg" xmlns:xlink="http://www.w3.org/1999/xlink">
    <style>
        :root, .palette0 {color: currentColor;
            --color0: #2f302c;
        }
    </style>
    <path fill="var(--color0, #2f302c)" d="M11.9997 4.75c0-0.862-0.3427-1.6884-0.9522-2.2978C10.438 1.8427 9.6116 1.5 8.7497 1.5c-0.862 0-1.6884 0.3427-2.2979 0.9522C5.8423 3.0616 5.4997 3.8881 5.4997 4.75l0 1.25h6.5zM11.9997 8.75V7.5h-6.5l0 1.25c0 0.4142-0.3358 0.75-0.75 0.75-0.4143 0-0.75-0.3358-0.75-0.75l0-1.25H2.4391L1.5641 18h14.3711l-0.875-10.5h-1.5605v1.25c0 0.4142-0.3358 0.75-0.75 0.75s-0.75-0.3358-0.75-0.75zM13.4997 6h2.25c0.39 0 0.7145 0.2989 0.747 0.6875l1 12c0.0175 0.209-0.0533 0.416-0.1953 0.5703S16.9594 19.5 16.7497 19.5h-16c-0.2097 0-0.4098-0.0879-0.5518-0.2422-0.142-0.1543-0.2127-0.3613-0.1953-0.5703l1-12 0.0254-0.1406C1.1172 6.2291 1.4083 6 1.7497 6h2.25l0-1.25c0-1.2598 0.5008-2.4676 1.3916-3.3584C6.2821 0.5008 7.4899 0 8.7497 0c1.2597 0 2.4676 0.5008 3.3584 1.3916s1.3916 2.0986 1.3916 3.3584z" />
</svg>