<svg viewBox="0 0 6 10" fill="none" width="19.2" height="32" xmlns="http://www.w3.org/2000/svg" xmlns:xlink="http://www.w3.org/1999/xlink">
    <style>
        :root, .palette0 {color: currentColor;
            --color0: #2f302c;
        }
    </style>
    <path fill="var(--color0, #2f302c)" clip-rule="evenodd" d="M0.2928 9.6947C0.1053 9.5072 0 9.2529 0 8.9877c0-0.2652 0.1053-0.5195 0.2928-0.707l3.293-3.293-3.293-3.293C0.1106 1.5061 98e-4 1.2535 0.0121 0.9913c23e-4-0.2622 0.1075-0.513 0.2929-0.6984C0.4904 0.1075 0.7412 23e-4 1.0034 0 1.2656-22e-4 1.5182 0.0986 1.7068 0.2807l4 4c0.1875 0.1875 0.2928 0.4418 0.2928 0.707 0 0.2652-0.1053 0.5195-0.2928 0.707l-4 4C1.5193 9.8822 1.265 9.9875 0.9998 9.9875c-0.2652 0-0.5195-0.1053-0.707-0.2928z" fill-rule="evenodd" />
</svg>