<svg viewBox="0 0 17 17" fill="none" width="32" height="32" xmlns="http://www.w3.org/2000/svg" xmlns:xlink="http://www.w3.org/1999/xlink">
    <style>
        :root, .palette0 {color: currentColor;
            --color0: #2f302c;
        }
    </style>
    <path fill="var(--color0, #2f302c)" clip-rule="evenodd" d="M15.876 0H0.924C0.4137 0 0 0.4137 0 0.924v14.952c0 0.2451 0.0973 0.4801 0.2706 0.6534C0.4439 16.7027 0.6789 16.8 0.924 16.8h8.0472v-6.51h-2.184V7.77h2.184V5.88C8.8796 4.9818 9.1897 4.0891 9.8183 3.441c0.6286-0.6481 1.5115-0.9852 2.4121-0.921 0.6538-4e-3 1.3073 0.0296 1.9572 0.1008v2.268H12.852c-1.0584 0-1.26 0.504-1.26 1.2348v1.6212h2.52l-0.3276 2.52H11.592V16.8h4.284c0.2451 0 0.4801-0.0973 0.6534-0.2706S16.8 16.1211 16.8 15.876V0.924c0-0.2451-0.0973-0.4801-0.2706-0.6534C16.3561 0.0973 16.1211 0 15.876 0z" fill-rule="evenodd" />
</svg>