<svg viewBox="0 0 20 17" fill="none" width="37.647059" height="32" xmlns="http://www.w3.org/2000/svg" xmlns:xlink="http://www.w3.org/1999/xlink">
    <style>
        :root, .palette0 {color: currentColor;
            --color0: #2f302c;
        }
    </style>
    <path fill="var(--color0, #2f302c)" d="M18 5.25c0-0.9946-0.3954-1.9481-1.0986-2.6514C16.1981 1.8954 15.2446 1.5 14.25 1.5c-0.9946 0-1.9481 0.3954-2.6514 1.0986L10.2803 3.916C10.1396 4.0567 9.9489 4.1357 9.75 4.1357c-0.1989 0-0.3896-0.079-0.5303-0.2197L7.9014 2.5986c-0.3482-0.3481-0.761-0.625-1.2159-0.8134C6.2306 1.5967 5.7425 1.5 5.25 1.5c-0.4923 0-0.9798 0.0968-1.4346 0.2852-0.4549 0.1884-0.8685 0.4652-1.2168 0.8134-0.3482 0.3482-0.625 0.7619-0.8134 1.2168C1.5968 4.2703 1.5 4.7577 1.5 5.25c0 0.4925 0.0967 0.9806 0.2852 1.4356 0.1884 0.4548 0.4653 0.8676 0.8134 1.2158L9.75 15.0527l7.1514-7.1513C17.6046 7.1981 18 6.2446 18 5.25zM19.5 5.25c0 1.3924-0.5535 2.7273-1.5381 3.7119l-7.6816 7.6826c-0.1407 0.1406-0.3315 0.2198-0.5303 0.2198-0.1989-1e-4-0.3896-0.0792-0.5303-0.2198L1.5381 8.9619C1.0506 8.4744 0.6632 7.8957 0.3994 7.2588 0.1357 6.6219 0 5.9393 0 5.25 0 4.5607 0.1357 3.8781 0.3994 3.2412c0.2639-0.637 0.6512-1.2156 1.1387-1.7031 0.4875-0.4875 1.0662-0.8748 1.7031-1.1387C3.8781 0.1357 4.5607 0 5.25 0 5.9393 0 6.6219 0.1357 7.2588 0.3994 7.8957 0.6632 8.4744 1.0506 8.9619 1.5381L9.75 2.3252l0.7881-0.7871C11.5226 0.5535 12.8576 0 14.25 0c1.3924 0 2.7273 0.5535 3.7119 1.5381C18.9465 2.5227 19.5 3.8576 19.5 5.25z" />
</svg>