<svg viewBox="0 0 18 18" fill="none" width="32" height="32" xmlns="http://www.w3.org/2000/svg" xmlns:xlink="http://www.w3.org/1999/xlink">
    <style>
        :root, .palette0 {color: currentColor;
            --color0: #2f302c;
        }
    </style>
    <path fill="var(--color0, #2f302c)" d="M6 12.75c0-0.3315-0.1318-0.6494-0.3662-0.8838C5.3994 11.6318 5.0815 11.5 4.75 11.5h-2c-0.3315 0-0.6494 0.1318-0.8838 0.3662C1.6318 12.1006 1.5 12.4185 1.5 12.75v2c0 0.3315 0.1318 0.6494 0.3662 0.8838C2.1006 15.8682 2.4185 16 2.75 16h2c0.3315 0 0.6494-0.1318 0.8838-0.3662C5.8682 15.3994 6 15.0815 6 14.75zM16 12.75c0-0.3315-0.1318-0.6494-0.3662-0.8838S15.0815 11.5 14.75 11.5h-2c-0.3315 0-0.6494 0.1318-0.8838 0.3662S11.5 12.4185 11.5 12.75v2c0 0.3315 0.1318 0.6494 0.3662 0.8838S12.4185 16 12.75 16h2c0.3315 0 0.6494-0.1318 0.8838-0.3662S16 15.0815 16 14.75zM6 2.75c0-0.3315-0.1318-0.6494-0.3662-0.8838C5.3994 1.6318 5.0815 1.5 4.75 1.5h-2c-0.3315 0-0.6494 0.1318-0.8838 0.3662C1.6318 2.1006 1.5 2.4185 1.5 2.75v2c0 0.3315 0.1318 0.6494 0.3662 0.8838C2.1006 5.8682 2.4185 6 2.75 6h2c0.3315 0 0.6494-0.1318 0.8838-0.3662C5.8682 5.3994 6 5.0815 6 4.75zM16 2.75c0-0.3315-0.1318-0.6494-0.3662-0.8838C15.3994 1.6318 15.0815 1.5 14.75 1.5h-2c-0.3315 0-0.6494 0.1318-0.8838 0.3662C11.6318 2.1006 11.5 2.4185 11.5 2.75v2c0 0.3315 0.1318 0.6494 0.3662 0.8838C12.1006 5.8682 12.4185 6 12.75 6h2c0.3315 0 0.6494-0.1318 0.8838-0.3662C15.8682 5.3994 16 5.0815 16 4.75zM7.5 14.75c0 0.7293-0.2899 1.4286-0.8057 1.9443C6.1786 17.2101 5.4794 17.5 4.75 17.5h-2c-0.7294 0-1.4286-0.2899-1.9443-0.8057C0.2899 16.1786 0 15.4793 0 14.75v-2c0-0.7293 0.2899-1.4286 0.8057-1.9443C1.3214 10.2899 2.0207 10 2.75 10h2c0.7294 0 1.4286 0.2899 1.9443 0.8057C7.2101 11.3214 7.5 12.0207 7.5 12.75zM17.5 14.75c0 0.7293-0.2899 1.4286-0.8057 1.9443C16.1786 17.2101 15.4793 17.5 14.75 17.5h-2c-0.7293 0-1.4286-0.2899-1.9443-0.8057C10.2899 16.1786 10 15.4793 10 14.75v-2c0-0.7293 0.2899-1.4286 0.8057-1.9443C11.3214 10.2899 12.0207 10 12.75 10h2c0.7293 0 1.4286 0.2899 1.9443 0.8057 0.5158 0.5157 0.8057 1.215 0.8057 1.9443zM7.5 4.75c0 0.7294-0.2899 1.4286-0.8057 1.9443C6.1786 7.2101 5.4794 7.5 4.75 7.5h-2c-0.7294 0-1.4286-0.2899-1.9443-0.8057C0.2899 6.1786 0 5.4794 0 4.75v-2c0-0.7294 0.2899-1.4286 0.8057-1.9443C1.3214 0.2899 2.0207 0 2.75 0h2c0.7294 0 1.4286 0.2899 1.9443 0.8057C7.2101 1.3214 7.5 2.0207 7.5 2.75zM17.5 4.75c0 0.7294-0.2899 1.4286-0.8057 1.9443C16.1786 7.2101 15.4793 7.5 14.75 7.5h-2c-0.7293 0-1.4286-0.2899-1.9443-0.8057C10.2899 6.1786 10 5.4794 10 4.75v-2c0-0.7294 0.2899-1.4286 0.8057-1.9443C11.3214 0.2899 12.0207 0 12.75 0h2c0.7293 0 1.4286 0.2899 1.9443 0.8057C17.2101 1.3214 17.5 2.0207 17.5 2.75z" />
</svg>