<svg viewBox="0 0 17 17" fill="none" width="32" height="32" xmlns="http://www.w3.org/2000/svg" xmlns:xlink="http://www.w3.org/1999/xlink">
    <style>
        :root, .palette0 {color: currentColor;
            --color0: #2f302c;
        }
    </style>
    <path fill="var(--color0, #2f302c)" clip-rule="evenodd" d="M12.8856 2.9064c-0.4077 0-0.7753 0.2456-0.9313 0.6223-0.156 0.3766-0.0697 0.8102 0.2185 1.0985 0.2883 0.2882 0.7219 0.3745 1.0985 0.2185 0.3767-0.156 0.6223-0.5236 0.6223-0.9313 0-0.5567-0.4513-1.008-1.008-1.008zM16.7496 4.9392c-0.0163-0.697-0.1469-1.3865-0.3864-2.0412-0.2136-0.5602-0.546-1.0674-0.9744-1.4868-0.416-0.4306-0.9244-0.7609-1.4868-0.966-0.653-0.2468-1.3433-0.3803-2.0412-0.3948C10.9704 0 10.6848 0 8.4 0S5.8296 0 4.9392 0.0504C4.2413 0.0649 3.551 0.1984 2.898 0.4452 2.3366 0.6524 1.8286 0.9824 1.4112 1.4112 0.9806 1.8272 0.6503 2.3356 0.4452 2.898 0.1984 3.551 0.0649 4.2413 0.0504 4.9392 0 5.8296 0 6.1152 0 8.4s0 2.5704 0.0504 3.4608c0.0145 0.6979 0.148 1.3882 0.3948 2.0412 0.2051 0.5624 0.5354 1.0708 0.966 1.4868 0.4174 0.4288 0.9254 0.7588 1.4868 0.966 0.653 0.2468 1.3433 0.3803 2.0412 0.3948C5.8296 16.8 6.1152 16.8 8.4 16.8s2.5704 0 3.4608-0.0504c0.6979-0.0145 1.3882-0.148 2.0412-0.3948 0.5624-0.2051 1.0708-0.5354 1.4868-0.966 0.4303-0.4178 0.763-0.9255 0.9744-1.4868 0.2395-0.6547 0.3701-1.3443 0.3864-2.0412 0-0.8904 0.0504-1.176 0.0504-3.4608s0-2.5704-0.0504-3.4608zM15.2376 11.76c-61e-4 0.5332-0.1027 1.0615-0.2856 1.5624-0.1341 0.3656-0.3495 0.6959-0.63 0.966-0.2725 0.2776-0.6021 0.4926-0.966 0.63-0.5009 0.1829-1.0292 0.2795-1.5624 0.2856-0.84 0.042-1.1508 0.0504-3.36 0.0504s-2.52 0-3.36-0.0504C4.52 15.2144 3.9687 15.1291 3.444 14.952c-0.3479-0.1444-0.6625-0.3589-0.924-0.63-0.2788-0.2699-0.4915-0.6004-0.6216-0.966-0.2051-0.5081-0.3188-1.0484-0.336-1.596 0-0.84-0.0504-1.1508-0.0504-3.36s0-2.52 0.0504-3.36c38e-4-0.5451 0.1033-1.0853 0.294-1.596C2.0043 3.0894 2.2313 2.7734 2.52 2.52 2.7752 2.2312 3.0906 2.0018 3.444 1.848 3.956 1.6632 4.4957 1.5667 5.04 1.5624c0.84 0 1.1508-0.0504 3.36-0.0504s2.52 0 3.36 0.0504c0.5332 61e-4 1.0615 0.1027 1.5624 0.2856 0.3817 0.1417 0.7243 0.372 0.9996 0.672 0.2753 0.258 0.4904 0.5735 0.63 0.924 0.1867 0.5115 0.2833 1.0515 0.2856 1.596 0.042 0.84 0.0504 1.1508 0.0504 3.36s-84e-4 2.52-0.0504 3.36zM8.4 4.0908c-2.3788 46e-4-4.3039 1.936-4.3008 4.3148 31e-4 2.3788 1.9332 4.3051 4.312 4.3036 2.3788-16e-4 4.3064-1.9304 4.3064-4.3092 22e-4-1.145-0.4522-2.2437-1.2626-3.0525-0.8105-0.8089-1.91-1.2612-3.055-1.2567zM8.4 11.1972c-1.5449 0-2.7972-1.2523-2.7972-2.7972S6.8552 5.6028 8.4 5.6028 11.1972 6.8552 11.1972 8.4c0 0.7419-0.2947 1.4533-0.8193 1.9779-0.5246 0.5246-1.236 0.8193-1.9779 0.8193z" fill-rule="evenodd" />
</svg>