<svg viewBox="0 0 18 14" fill="none" width="41.142857" height="32" xmlns="http://www.w3.org/2000/svg" xmlns:xlink="http://www.w3.org/1999/xlink">
    <style>
        :root, .palette0 {color: currentColor;
            --color0: #2f302c;
        }
    </style>
    <path fill="var(--color0, #2f302c)" d="M16.75 12c0.4142 0 0.75 0.3358 0.75 0.75s-0.3358 0.75-0.75 0.75h-16C0.3358 13.5 0 13.1642 0 12.75S0.3358 12 0.75 12zM16.75 6c0.4142 0 0.75 0.3358 0.75 0.75S17.1642 7.5 16.75 7.5h-16C0.3358 7.5 0 7.1642 0 6.75S0.3358 6 0.75 6zM16.75 0c0.4142 0 0.75 0.3358 0.75 0.75S17.1642 1.5 16.75 1.5h-16C0.3358 1.5 0 1.1642 0 0.75S0.3358 0 0.75 0z" />
</svg>