<svg viewBox="0 0 19 19" fill="none" width="32" height="32" xmlns="http://www.w3.org/2000/svg" xmlns:xlink="http://www.w3.org/1999/xlink">
    <style>
        :root, .palette0 {color: currentColor;
            --color0: #2f302c;
        }
    </style>
    <path fill="var(--color0, #2f302c)" d="M9.1667 0C4.1043 0 0 4.1009 0 9.1591c0 3.8823 2.4143 7.1992 5.8244 8.5335-0.083-0.7237-0.1509-1.8394 0.0302-2.6309 0.166-0.7162 1.0713-4.5532 1.0713-4.5532 0 0-0.2716-0.5503-0.2716-1.3569 0-1.274 0.7394-2.2238 1.6598-2.2238 0.7847 0 1.1619 0.588 1.1619 1.289 0 0.784-0.4979 1.96-0.762 3.0531-0.2188 0.9121 0.4602 1.6584 1.358 1.6584 1.6296 0 2.882-1.7187 2.882-4.1913 0-2.1937-1.5768-3.724-3.8326-3.724-2.6104 0-4.142 1.9525-4.142 3.9728 0 0.7839 0.3018 1.6282 0.679 2.0881 0.0755 0.0904 0.083 0.1734 0.0604 0.2638-0.0679 0.2865-0.2263 0.9122-0.2565 1.0403-0.0377 0.1659-0.1358 0.2036-0.3093 0.1206-1.1468-0.5352-1.8636-2.2012-1.8636-3.5505 0-2.8872 2.0974-5.5407 6.0583-5.5407 3.1763 0 5.6509 2.2615 5.6509 5.2919 0 3.1586-1.9917 5.699-4.7531 5.699-0.9279 0-1.8031-0.4825-2.0973-1.0554 0 0-0.4603 1.7489-0.5734 2.1786-0.2037 0.7991-0.762 1.7942-1.1393 2.4048 0.8601 0.2638 1.7655 0.407 2.7161 0.407 5.0624 0 9.1666-4.1008 9.1666-9.1591C18.3333 4.1009 14.2291 0 9.1667 0z" />
</svg>