<svg viewBox="0 0 20 20" fill="none" width="32" height="32" xmlns="http://www.w3.org/2000/svg" xmlns:xlink="http://www.w3.org/1999/xlink">
    <style>
        :root, .palette0 {color: currentColor;
            --color0: #2f302c;
        }
    </style>
    <path fill="var(--color0, #2f302c)" d="M14 7.75c0-1.6576-0.659-3.2468-1.8311-4.419C10.9968 2.159 9.4076 1.5 7.75 1.5S4.5032 2.159 3.3311 3.3311C2.159 4.5032 1.5 6.0924 1.5 7.75c0 0.8207 0.1616 1.6334 0.4756 2.3916 0.3141 0.7583 0.7751 1.447 1.3554 2.0273 0.5804 0.5804 1.2691 1.0414 2.0274 1.3555C6.1166 13.8385 6.9293 14 7.75 14s1.6334-0.1615 2.3916-0.4756c0.7583-0.3141 1.447-0.7751 2.0273-1.3555 0.5804-0.5803 1.0414-1.269 1.3555-2.0273C13.8385 9.3834 14 8.5707 14 7.75zM15.5 7.75c0 1.0177-0.2004 2.0256-0.5898 2.9658-0.2935 0.7085-0.6903 1.368-1.1758 1.958l5.5459 5.5459c0.2929 0.2929 0.2929 0.7677 0 1.0606s-0.7677 0.2929-1.0606 0l-5.5459-5.5459c-0.59 0.4855-1.2495 0.8823-1.958 1.1758C9.7756 15.2996 8.7677 15.5 7.75 15.5s-2.0255-0.2004-2.9658-0.5898c-0.9403-0.3895-1.795-0.9601-2.5147-1.6797-0.7196-0.7197-1.2902-1.5744-1.6797-2.5147C0.2004 9.7756 0 8.7677 0 7.75 0 5.6946 0.8161 3.7229 2.2695 2.2695 3.7229 0.8161 5.6946 0 7.75 0s4.0271 0.8161 5.4805 2.2695C14.6839 3.7229 15.5 5.6946 15.5 7.75z" />
</svg>