<svg viewBox="0 0 15 15" fill="none" width="32" height="32" xmlns="http://www.w3.org/2000/svg" xmlns:xlink="http://www.w3.org/1999/xlink">
    <style>
        :root, .palette0 {color: currentColor;
            --color0: #2f302c;
        }
    </style>
    <path fill="var(--color0, #2f302c)" d="M6.4826 0.6908c0.3-0.9211 1.603-0.9211 1.902-1e-4l1.07 3.2921c0.0653 0.2004 0.1924 0.3751 0.363 0.499 0.1707 0.124 0.3761 0.1908 0.587 0.1909l3.462 0c0.969 0 1.371 1.2401 0.588 1.8101l-2.8 2.034c-0.171 0.124-0.2983 0.299-0.3637 0.4998s-0.0655 0.4172-3e-4 0.6182l1.07 3.292c0.3 0.9209-0.755 1.6879-1.54 1.118l-2.8-2.0341C7.8498 11.8868 7.6441 11.82 7.4331 11.82c-0.2111 0-0.4167 0.0668-0.5875 0.1907l-2.8 2.0341c-0.784 0.5699-1.838-0.1971-1.539-1.118l1.07-3.292c0.0651-0.201 0.065-0.4174-4e-4-0.6182-0.0654-0.2008-0.1927-0.3758-0.3636-0.4999l-2.799-2.033c-0.783-0.57-0.38-1.81 0.588-1.81l3.461 0c0.211 1e-4 0.4167-0.0666 0.5875-0.1905 0.1708-0.124 0.298-0.2988 0.3635-0.4994l1.07-3.292z" />
</svg>