<svg viewBox="0 0 17 14" fill="none" width="38.857143" height="32" xmlns="http://www.w3.org/2000/svg" xmlns:xlink="http://www.w3.org/1999/xlink">
    <style>
        :root, .palette0 {color: currentColor;
            --color0: #2f302c;
        }
    </style>
    <path fill="var(--color0, #2f302c)" clip-rule="evenodd" d="M16.8 1.6473c-0.6314 0.2754-1.2991 0.4574-1.9824 0.5404 0.7209-0.4329 1.2611-1.114 1.5204-1.9168-0.6774 0.4053-1.419 0.691-2.1924 0.8444-1.0633-1.1592-2.7714-1.4497-4.1548-0.7066-1.3834 0.743-2.0927 2.3319-1.7252 3.8648-2.77-0.1408-5.3502-1.4577-7.098-3.6226-0.3031 0.5321-0.4624 1.1347-0.462 1.748-22e-4 1.1566 0.5717 2.2376 1.5288 2.8795-0.5477-0.015-1.0837-0.1627-1.5624-0.4307V4.89c85e-4 1.6449 1.1671 3.0568 2.772 3.3777C3.1443 8.3594 2.8332 8.4078 2.52 8.4113 2.3032 8.4088 2.0869 8.389 1.8732 8.3522c0.4544 1.407 1.746 2.3697 3.2172 2.3982-1.212 0.9587-2.7083 1.4819-4.2504 1.4862-0.2808 1e-3-0.5613-0.016-0.84-0.0506 1.5745 1.022 3.4094 1.5645 5.2836 1.5622 2.6126 0.0273 5.1265-1.0023 6.9764-2.8572 1.8498-1.8549 2.8804-4.3794 2.86-7.0059 0-0.1436 0-0.2956 0-0.4476 0.6591-0.4941 1.2276-1.0999 1.68-1.7902z" fill-rule="evenodd" />
</svg>