<svg viewBox="0 0 60 60" xmlns="http://www.w3.org/2000/svg" xmlns:xlink="http://www.w3.org/1999/xlink" width="60.000000" height="60.000000" fill="none">
	<rect id="email 1" width="60.000000" height="60.000000" x="0.000000" y="0.000000" fill="rgb(255,255,255)" fill-opacity="0" />
	<path id="Vector" d="M50.4872 46.9545L9.51246 46.9545C8.18061 46.953 6.90375 46.4232 5.96203 45.4814C5.02032 44.5396 4.49066 43.2627 4.48926 41.9308L4.48926 16.6252C4.49066 15.2934 5.02032 14.0165 5.96203 13.0747C6.90375 12.1329 8.18061 11.6031 9.51246 11.6016L50.4872 11.6016C51.819 11.6031 53.0959 12.1329 54.0376 13.0747C54.9793 14.0165 55.509 15.2934 55.5104 16.6252L55.5104 41.9308C55.509 43.2627 54.9793 44.5396 54.0376 45.4814C53.0959 46.4232 51.819 46.953 50.4872 46.9545ZM9.51246 13.5216C8.68963 13.5225 7.90076 13.8497 7.31898 14.4316C6.73719 15.0135 6.41002 15.8024 6.40926 16.6252L6.40926 41.9308C6.41002 42.7537 6.73719 43.5426 7.31898 44.1245C7.90076 44.7063 8.68963 45.0336 9.51246 45.0345L50.4872 45.0345C51.31 45.0336 52.0989 44.7063 52.6807 44.1245C53.2624 43.5426 53.5896 42.7537 53.5904 41.9308L53.5904 16.6252C53.5896 15.8024 53.2624 15.0135 52.6807 14.4316C52.0989 13.8497 51.31 13.5225 50.4872 13.5216L9.51246 13.5216Z" fill="rgb(0,0,0)" fill-rule="nonzero" />
	<path id="Vector" d="M30 34.9273C29.766 34.9274 29.54 34.842 29.3645 34.6873L6.22852 14.2642L7.49908 12.8242L30 32.6885L52.502 12.8266L53.7725 14.2666L30.6365 34.6897C30.4605 34.844 30.2341 34.9286 30 34.9273Z" fill="rgb(0,0,0)" fill-rule="nonzero" />
	<path id="Vector" d="M0 0L23.5623 0L23.5623 1.92106L0 1.92106L0 0Z" fill="rgb(0,0,0)" fill-rule="nonzero" transform="matrix(0.659636,-0.751585,0.751585,0.659636,5.70605,43.9395)" />
	<path id="Vector" d="M0 0L1.92106 0L1.92106 23.5628L0 23.5628L0 0Z" fill="rgb(0,0,0)" fill-rule="nonzero" transform="matrix(0.751585,-0.659636,0.659636,0.751585,37.3564,27.4805)" />
</svg>
