<svg viewBox="0 0 200 42" xmlns="http://www.w3.org/2000/svg" xmlns:xlink="http://www.w3.org/1999/xlink" width="200.000000" height="42.000000" fill="none" customFrame="#000000">
	<defs>
		<clipPath id="clipPath_0">
			<rect width="9.210526" height="9.187490" x="190.789062" y="0.000000" fill="rgb(255,255,255)" />
		</clipPath>
	</defs>
	<rect id="Logo" width="200.000000" height="42.000000" x="0.000000" y="0.000000" />
	<path id="FURNITUR" d="M55.1026 23.1L50.4131 23.1L50.4131 6.5625L63.4157 6.5625L63.4157 10.1771L55.1026 10.1771L55.1026 13.8154L62.421 13.8154L62.421 17.43L55.1026 17.43L55.1026 23.1ZM74.68 23.4307Q71.4045 23.4307 69.4112 21.8321Q69.1704 21.639 68.9484 21.4226Q68.6923 21.173 68.468 20.8975Q66.8879 18.9564 66.8879 15.729L66.8879 6.5625L71.5773 6.5625L71.5773 15.5872C71.5773 17.0047 71.8537 18.0206 72.4063 18.6349C72.9747 19.2491 73.7484 19.5562 74.7273 19.5562C75.7063 19.5562 76.4721 19.2491 77.0247 18.6349Q77.8537 17.7135 77.8537 15.5872L77.8537 6.5625L82.4721 6.5625L82.4721 15.729Q82.4721 18.9564 80.8919 20.8975Q80.6676 21.173 80.4115 21.4226C79.0379 22.7614 77.1273 23.4307 74.68 23.4307ZM87.07 23.1L87.07 6.5625L94.6489 6.5625C96.1647 6.5625 97.4673 6.80662 98.5568 7.29487C99.6621 7.78312 100.515 8.49187 101.115 9.42112C101.715 10.3346 102.015 11.4214 102.015 12.6814C102.015 13.9256 101.715 15.0045 101.115 15.918C100.554 16.7576 99.7715 17.4181 98.7684 17.8995L102.346 23.1L97.3252 23.1L94.3193 18.7057L91.7594 18.7057L91.7594 23.1L87.07 23.1ZM106.023 23.1L106.023 6.5625L109.883 6.5625L117.202 15.3756L117.202 6.5625L121.797 6.5625L121.797 23.1L117.936 23.1L110.618 14.2869L110.618 23.1L106.023 23.1ZM126.525 23.1L126.525 6.5625L131.215 6.5625L131.215 23.1L126.525 23.1ZM139.501 23.1L139.501 10.2716L134.409 10.2716L134.409 6.5625L149.259 6.5625L149.259 10.2716L144.191 10.2716L144.191 23.1L139.501 23.1ZM159.823 23.4307Q156.547 23.4307 154.554 21.8321Q154.313 21.639 154.091 21.4226Q153.835 21.173 153.611 20.8975Q152.031 18.9564 152.031 15.729L152.031 6.5625L156.72 6.5625L156.72 15.5872C156.72 17.0047 156.997 18.0206 157.549 18.6349C158.118 19.2491 158.891 19.5562 159.87 19.5562C160.849 19.5562 161.615 19.2491 162.168 18.6349Q162.997 17.7135 162.997 15.5872L162.997 6.5625L167.615 6.5625L167.615 15.729Q167.615 18.9564 166.035 20.8975L166.034 20.8981Q165.81 21.1733 165.554 21.4226C164.181 22.7614 162.27 23.4307 159.823 23.4307ZM172.213 23.1L172.213 6.5625L179.792 6.5625C181.308 6.5625 182.61 6.80662 183.7 7.29487Q184.964 7.85359 185.788 8.79729Q186.044 9.09061 186.258 9.42112C186.858 10.3346 187.158 11.4214 187.158 12.6814C187.158 13.9256 186.858 15.0045 186.258 15.918C185.696 16.7576 184.914 17.4181 183.911 17.8995L187.489 23.1L182.468 23.1L179.462 18.7057L176.902 18.7057L176.902 23.1L172.213 23.1ZM91.7594 15.0911L94.3647 15.0911Q95.8331 15.0911 96.5436 14.4532C97.0331 14.028 97.2778 13.4374 97.2778 12.6814C97.2778 11.9096 97.0331 11.3111 96.5436 10.8859Q95.8331 10.248 94.3647 10.248L91.7594 10.248L91.7594 15.0911ZM176.902 15.0911L179.508 15.0911C180.487 15.0911 181.213 14.8785 181.687 14.4532C182.176 14.028 182.421 13.4374 182.421 12.6814C182.421 11.9096 182.176 11.3111 181.687 10.8859C181.213 10.4606 180.487 10.248 179.508 10.248L176.902 10.248L176.902 15.0911Z" fill="rgb(47,48,44)" fill-rule="evenodd" />
	<path id="YOUR FUTURE INTERIOR" d="M59.0122 39.795C58.5806 39.795 58.1832 39.7241 57.8201 39.5824C57.4569 39.4406 57.1411 39.2437 56.8727 38.9917C56.6043 38.7345 56.3964 38.4352 56.249 38.094Q56.028 37.5742 56.028 36.96C56.028 36.5505 56.1016 36.1751 56.249 35.8339C56.3964 35.4874 56.6043 35.1881 56.8727 34.9361Q56.95 34.8621 57.0325 34.7944L57.0325 34.7944Q57.3799 34.5094 57.8201 34.3376Q58.3648 34.125 59.0043 34.125C59.4358 34.125 59.8306 34.1959 60.1885 34.3376C60.5516 34.4794 60.8674 34.6789 61.1358 34.9361C61.4043 35.1881 61.6122 35.4874 61.7595 35.8339Q61.9806 36.3457 61.9806 36.96C61.9806 37.3695 61.9069 37.7475 61.7595 38.094C61.6122 38.4405 61.4043 38.7397 61.1358 38.9917C60.8674 39.2437 60.5516 39.4406 60.1885 39.5824C59.8306 39.7241 59.4385 39.795 59.0122 39.795ZM166.527 39.795C166.096 39.795 165.698 39.7241 165.335 39.5824C164.972 39.4406 164.656 39.2437 164.388 38.9917Q164.186 38.7983 164.03 38.5732L164.03 38.573Q163.874 38.3491 163.764 38.094Q163.543 37.5742 163.543 36.96Q163.543 36.3457 163.764 35.8339Q163.904 35.5054 164.116 35.2335L164.116 35.2334Q164.24 35.0752 164.388 34.9361C164.656 34.6789 164.972 34.4794 165.335 34.3376Q165.88 34.125 166.519 34.125Q167.167 34.125 167.704 34.3376C168.067 34.4794 168.383 34.6789 168.651 34.9361Q168.799 35.0752 168.923 35.2334L168.923 35.2335Q169.135 35.5054 169.275 35.8339Q169.496 36.3457 169.496 36.96Q169.496 37.5742 169.275 38.094Q169.135 38.4225 168.923 38.6944Q168.799 38.8527 168.651 38.9917C168.383 39.2437 168.067 39.4406 167.704 39.5824C167.346 39.7241 166.954 39.795 166.527 39.795ZM51.3791 39.7162L51.3791 37.787L49.208 34.2038L50.3054 34.2038L51.9251 36.8854L53.558 34.2038L54.5685 34.2038L52.4054 37.774L52.4054 39.7162L51.3791 39.7162ZM66.8658 39.795C66.1079 39.795 65.5132 39.5824 65.0816 39.1571Q65.0402 39.1159 65.0015 39.0722Q64.4421 38.4413 64.4421 37.3144L64.4421 34.2038L65.4685 34.2038L65.4685 37.275C65.4685 37.842 65.5895 38.2541 65.8316 38.5114Q65.8899 38.572 65.9556 38.6231L65.9558 38.6232Q66.3082 38.8972 66.8737 38.8972C67.3211 38.8972 67.6658 38.7686 67.9079 38.5114Q68.2711 38.1255 68.2711 37.275L68.2711 34.2038L69.2816 34.2038L69.2816 37.3144C69.2816 38.1176 69.0658 38.7319 68.6342 39.1571Q68.5414 39.2497 68.4382 39.3289Q67.8308 39.795 66.8658 39.795ZM72.14 39.7162L72.14 34.2038L74.4137 34.2038Q75.1479 34.2038 75.6689 34.44C76.0216 34.5975 76.2926 34.8232 76.4821 35.1172Q76.5025 35.1489 76.5215 35.1815L76.5219 35.1821Q76.7663 35.6023 76.7663 36.1646C76.7663 36.5689 76.6716 36.918 76.4821 37.212C76.2926 37.5007 76.0216 37.7239 75.6689 37.8814Q75.632 37.8976 75.5939 37.9126L76.8611 39.7162L75.7558 39.7162L74.6299 38.1046Q74.5242 38.1097 74.4137 38.1097L73.1663 38.1097L73.1663 39.7162L72.14 39.7162ZM83.9648 39.7162L82.9385 39.7162L82.9385 34.2038L86.9727 34.2038L86.9727 35.0621L83.9648 35.0621L83.9648 36.7395L86.6333 36.7395L86.6333 37.6057L83.9648 37.6057L83.9648 39.7162ZM91.7626 39.795C91.0047 39.795 90.41 39.5824 89.9784 39.1571Q89.9373 39.1161 89.8988 39.0727L89.8983 39.0722Q89.3389 38.4413 89.3389 37.3144L89.3389 34.2038L90.3652 34.2038L90.3652 37.275Q90.3652 38.1255 90.7284 38.5114C90.9758 38.7686 91.3231 38.8972 91.7705 38.8972C92.2179 38.8972 92.5626 38.7686 92.8047 38.5114C93.0468 38.2541 93.1679 37.842 93.1679 37.275L93.1679 34.2038L94.1784 34.2038L94.1784 37.3144Q94.1784 38.4258 93.6275 39.0548L93.6269 39.0555Q93.5809 39.108 93.531 39.1571C93.1047 39.5824 92.5152 39.795 91.7626 39.795ZM98.0576 39.7162L98.0576 35.07L96.226 35.07L96.226 34.2038L100.916 34.2038L100.916 35.07L99.0839 35.07L99.0839 39.7162L98.0576 39.7162ZM105.383 39.795C104.625 39.795 104.03 39.5824 103.599 39.1571C103.172 38.7319 102.959 38.1176 102.959 37.3144L102.959 34.2038L103.986 34.2038L103.986 37.275C103.986 37.842 104.107 38.2541 104.349 38.5114C104.596 38.7686 104.943 38.8972 105.391 38.8972C105.838 38.8972 106.183 38.7686 106.425 38.5114C106.667 38.2541 106.788 37.842 106.788 37.275L106.788 34.2038L107.799 34.2038L107.799 37.3144Q107.799 38.4258 107.248 39.0548L107.247 39.0555Q107.201 39.108 107.151 39.1571C106.725 39.5824 106.136 39.795 105.383 39.795ZM110.657 39.7162L110.657 34.2038L112.931 34.2038C113.42 34.2038 113.839 34.2825 114.186 34.44C114.539 34.5975 114.81 34.8232 114.999 35.1172C115.189 35.4112 115.283 35.7604 115.283 36.1646C115.283 36.5689 115.189 36.918 114.999 37.212C114.81 37.5007 114.539 37.7239 114.186 37.8814C114.161 37.8922 114.136 37.9026 114.111 37.9126L115.378 39.7162L114.273 39.7162L113.147 38.1046C113.076 38.108 113.004 38.1097 112.931 38.1097L111.683 38.1097L111.683 39.7162L110.657 39.7162ZM118.879 38.8579L121.997 38.8579L121.997 39.7162L117.853 39.7162L117.853 34.2038L121.887 34.2038L121.887 35.0621L118.879 35.0621L118.879 36.4954L121.547 36.4954L121.547 37.338L118.879 37.338L118.879 38.8579ZM128.165 39.7162L128.165 34.2038L129.192 34.2038L129.192 39.7162L128.165 39.7162ZM132.108 39.7162L132.108 34.2038L132.952 34.2038L136 37.9359L136 34.2038L137.018 34.2038L137.018 39.7162L136.173 39.7162L133.126 35.9841L133.126 39.7162L132.108 39.7162ZM141.041 39.7162L141.041 35.07L139.21 35.07L139.21 34.2038L143.899 34.2038L143.899 35.07L142.067 35.07L142.067 39.7162L141.041 39.7162ZM147.117 38.8579L150.235 38.8579L150.235 39.7162L146.09 39.7162L146.09 34.2038L150.124 34.2038L150.124 35.0621L147.117 35.0621L147.117 36.4954L149.785 36.4954L149.785 37.338L147.117 37.338L147.117 38.8579ZM152.8 39.7162L152.8 34.2038L155.074 34.2038C155.563 34.2038 155.982 34.2825 156.329 34.44C156.682 34.5975 156.953 34.8232 157.142 35.1172C157.332 35.4112 157.426 35.7604 157.426 36.1646C157.426 36.5689 157.332 36.918 157.142 37.212C156.953 37.5007 156.682 37.7239 156.329 37.8814C156.304 37.8922 156.279 37.9026 156.254 37.9126L157.521 39.7162L156.416 39.7162L155.29 38.1046C155.22 38.108 155.148 38.1097 155.074 38.1097L153.826 38.1097L153.826 39.7162L152.8 39.7162ZM159.996 39.7162L159.996 34.2038L161.022 34.2038L161.022 39.7162L159.996 39.7162ZM172.005 39.7162L172.005 34.2038L174.278 34.2038C174.768 34.2038 175.186 34.2825 175.534 34.44Q175.955 34.6281 176.221 34.9461Q176.289 35.0274 176.347 35.1172C176.536 35.4112 176.631 35.7604 176.631 36.1646C176.631 36.5689 176.536 36.918 176.347 37.212C176.157 37.5007 175.886 37.7239 175.534 37.8814C175.509 37.8922 175.484 37.9026 175.459 37.9126L176.726 39.7162L175.621 39.7162L174.495 38.1046Q174.389 38.1097 174.278 38.1097L173.031 38.1097L173.031 39.7162L172.005 39.7162ZM59.0043 38.8972C59.2832 38.8972 59.5411 38.85 59.778 38.7555C60.0148 38.661 60.2201 38.5271 60.3937 38.3539C60.5674 38.1754 60.7016 37.9706 60.7964 37.7396Q60.9464 37.3852 60.9464 36.96Q60.9464 36.5347 60.7964 36.1882C60.7016 35.952 60.5674 35.7472 60.3937 35.574C60.2201 35.3955 60.0148 35.259 59.778 35.1645C59.5411 35.07 59.2832 35.0228 59.0043 35.0228C58.7253 35.0228 58.4674 35.07 58.2306 35.1645C57.999 35.259 57.7937 35.3955 57.6148 35.574C57.4411 35.7472 57.3043 35.952 57.2043 36.1882Q57.0622 36.5347 57.0622 36.96C57.0622 37.2382 57.1095 37.4955 57.2043 37.7317C57.3043 37.968 57.4411 38.1754 57.6148 38.3539Q57.6831 38.4221 57.758 38.4821Q57.9685 38.6509 58.2306 38.7555C58.4674 38.85 58.7253 38.8972 59.0043 38.8972ZM166.519 38.8972C166.798 38.8972 167.056 38.85 167.293 38.7555C167.53 38.661 167.735 38.5271 167.909 38.3539C168.083 38.1754 168.217 37.9706 168.312 37.7396C168.412 37.5034 168.462 37.2435 168.462 36.96C168.462 36.6765 168.412 36.4192 168.312 36.1882C168.217 35.952 168.083 35.7472 167.909 35.574C167.735 35.3955 167.53 35.259 167.293 35.1645C167.056 35.07 166.798 35.0228 166.519 35.0228C166.241 35.0228 165.983 35.07 165.746 35.1645C165.514 35.259 165.309 35.3955 165.13 35.574C164.956 35.7472 164.819 35.952 164.719 36.1882C164.625 36.4192 164.577 36.6765 164.577 36.96C164.577 37.2382 164.625 37.4955 164.719 37.7317C164.819 37.968 164.956 38.1754 165.13 38.3539C165.304 38.5271 165.509 38.661 165.746 38.7555C165.983 38.85 166.241 38.8972 166.519 38.8972ZM73.1663 37.2671L74.3663 37.2671Q75.0453 37.2671 75.3847 36.9757Q75.4935 36.8845 75.5682 36.7708Q75.7321 36.5216 75.7321 36.1646Q75.7321 35.7876 75.5547 35.5352Q75.4839 35.4344 75.3847 35.3535Q75.0453 35.07 74.3663 35.07L73.1663 35.07L73.1663 37.2671ZM111.683 37.2671L112.883 37.2671C113.336 37.2671 113.675 37.17 113.902 36.9757C114.133 36.7815 114.249 36.5111 114.249 36.1646C114.249 35.8129 114.133 35.5425 113.902 35.3535C113.675 35.1645 113.336 35.07 112.883 35.07L111.683 35.07L111.683 37.2671ZM153.826 37.2671L155.026 37.2671C155.479 37.2671 155.819 37.17 156.045 36.9757C156.276 36.7815 156.392 36.5111 156.392 36.1646C156.392 35.8129 156.276 35.5425 156.045 35.3535C155.819 35.1645 155.479 35.07 155.026 35.07L153.826 35.07L153.826 37.2671ZM173.031 37.2671L174.231 37.2671C174.684 37.2671 175.023 37.17 175.249 36.9757C175.481 36.7815 175.597 36.5111 175.597 36.1646C175.597 35.8129 175.481 35.5425 175.249 35.3535C175.023 35.1645 174.684 35.07 174.231 35.07L173.031 35.07L173.031 37.2671Z" fill="rgb(47,48,44)" fill-rule="evenodd" />
	<path id="Intersect" d="M1.8421 34.6505C18.12 34.6505 31.3158 21.4872 31.3158 5.25005L27.6316 5.25056C27.6316 19.4581 16.0852 30.9755 1.8421 30.9755C1.22272 30.9755 0.608447 30.9538 0 30.9109L0 34.594C0.60921 34.6315 1.22343 34.6505 1.8421 34.6505ZM0 29.0684C0.607968 29.1145 1.22228 29.138 1.8421 29.138C15.0679 29.138 25.7895 18.4432 25.7895 5.25056L22.1053 5.25005C22.1053 16.4131 13.0331 25.463 1.8421 25.463C1.22114 25.463 0.606717 25.4352 0 25.3806L0 29.0684ZM0 23.5348C0.605877 23.5948 1.22039 23.6255 1.8421 23.6255C12.0158 23.6255 20.2631 15.3988 20.2631 5.25056L16.5789 5.25005C16.5789 13.3686 9.98103 19.9505 1.8421 19.9505C1.21825 19.9505 0.60346 19.9119 0 19.8368L0 23.5348ZM0 17.9828C0.601634 18.0686 1.21667 18.113 1.8421 18.113C8.96366 18.113 14.7368 12.3543 14.7368 5.25056L11.0526 5.25005C11.0526 10.3242 6.92893 14.4381 1.8421 14.4381C1.21124 14.4381 0.5952 14.3748 0 14.2543L0 17.9828ZM0 12.369C0.588771 12.5202 1.20602 12.6006 1.8421 12.6006C5.91156 12.6006 9.21052 9.30985 9.21052 5.25056L0 5.25005L0 12.369ZM33.1579 5.25056C33.1579 22.5025 19.1373 36.488 1.8421 36.488C1.22371 36.488 0.609518 36.4701 0 36.4349L0 40.1155C0.610031 40.147 1.22419 40.163 1.8421 40.163C21.1721 40.163 36.8421 24.5322 36.8421 5.25057L36.8421 5.25056L33.1579 5.25056ZM36.8421 16.7576C36.4668 17.8942 36.0373 19.0063 35.5569 20.0908C35.9896 20.1417 36.4182 20.2063 36.8421 20.2839L36.8421 16.7576ZM36.8421 22.1557C36.1478 22.0151 35.4393 21.9135 34.7191 21.8532C34.0837 23.1026 33.3789 24.311 32.6096 25.4731C32.7915 25.4665 32.9743 25.4632 33.1579 25.4632C34.43 25.4632 35.6646 25.6239 36.8421 25.9263L36.8421 22.1557ZM36.8421 27.8333C35.6747 27.4867 34.4381 27.3007 33.1579 27.3007C32.495 27.3007 31.8438 27.3505 31.2079 27.4468C28.3481 31.2056 24.7796 34.3985 20.701 36.8275C20.4154 37.8913 20.2631 39.0095 20.2631 40.1631C20.2631 40.7868 20.3076 41.4001 20.3936 42L24.1315 42C24.0107 41.4065 23.9474 40.7922 23.9474 40.1631C23.9474 35.089 28.0711 30.9757 33.1579 30.9757C34.4678 30.9757 35.7139 31.2484 36.8421 31.7401L36.8421 27.8333ZM36.8421 33.7965C35.7583 33.1711 34.5 32.8131 33.1579 32.8131C29.0884 32.8131 25.7895 36.1039 25.7895 40.1631C25.7895 40.7974 25.87 41.4129 26.0214 42L36.8421 42L36.8421 33.7965ZM14.8277 42L18.535 42C18.4598 41.3983 18.421 40.7852 18.421 40.1631C18.421 39.4275 18.4752 38.7045 18.5798 37.9979C17.3398 38.6298 16.0592 39.1936 14.743 39.6845C14.7389 39.8436 14.7368 40.0031 14.7368 40.1631C14.7368 40.7831 14.7676 41.3958 14.8277 42ZM9.28027 42L12.9773 42C12.9272 41.4455 12.8996 40.8845 12.8953 40.318C11.7004 40.6924 10.4793 41.0077 9.23534 41.2605C9.24656 41.508 9.26156 41.7545 9.28027 42ZM7.43315 42C7.42336 41.8617 7.41467 41.723 7.40709 41.5841C6.2022 41.7662 4.97814 41.8901 3.73791 41.9528C3.73886 41.9686 3.73982 41.9843 3.74079 42L7.43315 42ZM1.62392 42C1.07974 41.9969 0.53835 41.9819 0 41.9555L0 42L1.62392 42Z" fill="rgb(47,48,44)" fill-rule="evenodd" />
	<g id="trademark 1" clip-path="url(#clipPath_0)" customFrame="url(#clipPath_0)">
		<rect id="trademark 1" width="9.210526" height="9.187490" x="190.789062" y="0.000000" fill="rgb(47,48,44)" fill-opacity="0" />
		<g id="Group">
			<path id="Vector" d="M190.981 3.0625L192.517 3.0625L192.517 6.89062L193.284 6.89062L193.284 3.0625L194.819 3.0625L194.819 2.29688L190.981 2.29688L190.981 3.0625Z" fill="rgb(0,0,0)" fill-rule="nonzero" />
			<path id="Vector" d="M198.849 2.29688L197.698 4.2875L196.546 2.29688L195.587 2.29688L195.587 6.89062L196.354 6.89062L196.354 3.48359L197.698 5.81875L199.041 3.48359L199.041 6.89062L199.808 6.89062L199.808 2.29688L198.849 2.29688Z" fill="rgb(0,0,0)" fill-rule="nonzero" />
		</g>
	</g>
</svg>
