<svg viewBox="0 0 60 60" xmlns="http://www.w3.org/2000/svg" xmlns:xlink="http://www.w3.org/1999/xlink" width="60.000000" height="60.000000" fill="none">
	<rect id="phone 1" width="60.000000" height="60.000000" x="0.000000" y="0.000000" fill="rgb(255,255,255)" fill-opacity="0" />
	<path id="Vector" d="M30.0513 2.55664L29.9997 2.55664C22.7211 2.55664 15.7406 5.44805 10.5938 10.5948C5.44708 15.7416 2.55566 22.722 2.55566 30.0006C2.55566 37.2792 5.44708 44.2597 10.5938 49.4065C15.7406 54.5532 22.7211 57.4446 29.9997 57.4446C30.2384 57.4446 30.4673 57.3498 30.6361 57.181C30.8048 57.0122 30.8997 56.7833 30.8997 56.5446C30.8997 56.3059 30.8048 56.077 30.6361 55.9082C30.4673 55.7395 30.2384 55.6446 29.9997 55.6446C23.1985 55.6446 16.6758 52.9429 11.8666 48.1337C7.05743 43.3245 4.35566 36.8018 4.35566 30.0006C4.35566 23.1994 7.05743 16.6768 11.8666 11.8676C16.6758 7.05841 23.1985 4.35664 29.9997 4.35664L30.0483 4.35664C34.7303 4.36586 39.3204 5.6566 43.321 8.0889C47.3217 10.5212 50.5802 14.0023 52.7432 18.1547C54.9062 22.3071 55.8913 26.9724 55.5915 31.6448C55.2918 36.3172 53.7187 40.8184 51.0429 44.6604C50.6471 45.2264 50.1317 45.6985 49.5332 46.0433C48.9348 46.388 48.2678 46.597 47.5797 46.6554C46.8779 46.717 46.1711 46.6242 45.509 46.3834C44.847 46.1426 44.2457 45.7597 43.7475 45.2616L42.8997 44.4108C43.2261 44.2158 43.5471 44.0076 43.8597 43.7832C44.4899 43.3414 45.0804 42.8453 45.6243 42.3006L45.6273 42.3006C46.0908 41.8303 46.3499 41.1958 46.3479 40.5354C46.346 39.875 46.0833 39.2421 45.6171 38.7744L40.9563 34.119C40.4879 33.6519 39.8534 33.3896 39.192 33.3896C38.5305 33.3896 37.896 33.6519 37.4277 34.119L36.7317 34.8126C36.5028 35.0398 36.2517 35.2434 35.9823 35.4204C35.0875 35.999 34.0219 36.2541 32.9621 36.1436C31.9024 36.033 30.9123 35.5634 30.1563 34.8126L24.0657 28.722C23.4932 28.144 23.1726 27.363 23.1737 26.5494C23.1748 25.7358 23.4976 24.9557 24.0717 24.3792L25.8813 22.5606C26.1135 22.3296 26.2979 22.0549 26.4236 21.7524C26.5494 21.4499 26.6142 21.1255 26.6142 20.7978C26.6142 20.4702 26.5494 20.1458 26.4236 19.8433C26.2979 19.5408 26.1135 19.2661 25.8813 19.035L21.2283 14.3826C20.9979 14.1488 20.7232 13.9633 20.4201 13.8371C20.1171 13.7108 19.7919 13.6464 19.4637 13.6476C18.8377 13.6453 18.2342 13.8812 17.7759 14.3076C17.7481 14.3294 17.7216 14.3529 17.6967 14.3778C17.1563 14.9189 16.6625 15.5046 16.2207 16.1286C14.4986 18.5294 13.5917 21.4191 13.6331 24.3734C13.6746 27.3276 14.6623 30.1907 16.4511 32.5422C19.5922 36.7055 23.2994 40.4097 27.4653 43.5474C29.8744 45.3734 32.8135 46.3635 35.8365 46.3674C37.6825 46.3654 39.5091 45.9909 41.2071 45.2664L42.4743 46.5354C43.1573 47.221 43.9829 47.7478 44.8924 48.0786C45.8019 48.4094 46.773 48.536 47.7369 48.4494C48.6875 48.3681 49.6087 48.0786 50.4351 47.6017C51.2614 47.1247 51.9728 46.4719 52.5189 45.6894C55.383 41.5779 57.0669 36.7607 57.388 31.7602C57.709 26.7598 56.655 21.7668 54.3401 17.3228C52.0252 12.8787 48.5379 9.15323 44.2563 6.55026C39.9746 3.94728 35.062 2.56615 30.0513 2.55664ZM28.5513 42.1098C24.519 39.0747 20.9305 35.491 17.8899 31.4628C16.4453 29.5625 15.5993 27.2751 15.4598 24.8922C15.3202 22.5093 15.8934 20.1388 17.1063 18.0828L20.4381 21.4152C20.6069 21.5841 20.8359 21.6789 21.0747 21.6789C21.3134 21.6789 21.5424 21.5841 21.7113 21.4152C21.8801 21.2464 21.975 21.0174 21.975 20.7786C21.975 20.5399 21.8801 20.3109 21.7113 20.142L18.1503 16.5786C18.3903 16.2786 18.6423 15.9888 18.9129 15.714C18.9369 15.6953 18.96 15.6753 18.9819 15.654C19.1128 15.528 19.2877 15.4579 19.4695 15.4586C19.6513 15.4593 19.8256 15.5307 19.9557 15.6576L24.6117 20.3136C24.6766 20.3782 24.7281 20.4549 24.7631 20.5395C24.7981 20.624 24.816 20.7147 24.8157 20.8062C24.8156 20.8965 24.7975 20.9857 24.7624 21.0689C24.7274 21.152 24.6761 21.2273 24.6117 21.2904L22.7907 23.1168C21.8829 24.0317 21.3735 25.2682 21.3735 26.5569C21.3735 27.8457 21.8829 29.0822 22.7907 29.997L28.8837 36.0852C29.8427 37.0359 31.0747 37.6633 32.4077 37.8796C33.7406 38.0959 35.1078 37.8904 36.3183 37.2918L39.9783 40.9518C40.148 41.1158 40.3753 41.2065 40.6113 41.2044C40.8473 41.2024 41.073 41.1077 41.2399 40.9409C41.4068 40.774 41.5014 40.5483 41.5035 40.3123C41.5055 40.0763 41.4148 39.849 41.2509 39.6792L37.8237 36.252C37.8837 36.1968 37.9491 36.1446 38.0037 36.0876L38.6997 35.3886C38.8303 35.2584 39.0072 35.1852 39.1917 35.1852C39.3761 35.1852 39.5531 35.2584 39.6837 35.3886L44.3445 40.044C44.4747 40.1746 44.5483 40.3512 44.5492 40.5357C44.5501 40.7201 44.4783 40.8974 44.3493 41.0292C43.8778 41.501 43.3658 41.9304 42.8193 42.3126C40.732 43.8102 38.2193 44.5988 35.6507 44.5623C33.082 44.5257 30.5927 43.6662 28.5489 42.1098L28.5513 42.1098Z" fill="rgb(0,0,0)" fill-rule="nonzero" />
</svg>
